<svg width="111" height="36" viewBox="0 0 111 36" fill="none" xmlns="http://www.w3.org/2000/svg">
<path d="M15.625 3L18.8395 10.2394L26.2316 7.3934L23.3856 14.7855L30.625 18L23.3856 21.2145L26.2316 28.6066L18.8395 25.7606L15.625 33L12.4105 25.7606L5.0184 28.6066L7.86441 21.2145L0.625 18L7.86441 14.7855L5.0184 7.3934L12.4105 10.2394L15.625 3Z" fill="#0C111D"/>
<path d="M51.0746 12.6334C51.4106 12.9694 51.8306 13.1374 52.3346 13.1374C52.8386 13.1374 53.2516 12.9694 53.5736 12.6334C53.8956 12.2834 54.0566 11.8634 54.0566 11.3734C54.0566 10.8694 53.8956 10.4494 53.5736 10.1134C53.2516 9.77737 52.8386 9.60938 52.3346 9.60938C51.8306 9.60938 51.4106 9.77737 51.0746 10.1134C50.7526 10.4494 50.5916 10.8694 50.5916 11.3734C50.5916 11.8634 50.7526 12.2834 51.0746 12.6334Z" fill="#0C111D"/>
<path d="M39.922 17.4547L45.592 24.7504H49.687L43.4786 16.9802L49.477 9.92437H45.403L39.922 16.6124V9.92437H36.625V24.7504H39.922V17.4547Z" fill="#0C111D"/>
<path d="M59.1542 17.6944C58.8742 18.0304 58.7342 18.4924 58.7342 19.0804V24.7504H55.5212V19.0174C55.5212 18.0794 55.7242 17.2604 56.1302 16.5604C56.5502 15.8464 57.1242 15.2934 57.8522 14.9014C58.5942 14.5094 59.4482 14.3134 60.4142 14.3134C61.3942 14.3134 62.2482 14.5094 62.9762 14.9014C63.7042 15.2934 64.2712 15.8394 64.6772 16.5394C65.0832 17.2394 65.2862 18.0654 65.2862 19.0174V24.7504H62.0732V19.0804C62.0732 18.4924 61.9262 18.0304 61.6322 17.6944C61.3522 17.3444 60.9462 17.1694 60.4142 17.1694C59.8682 17.1694 59.4482 17.3444 59.1542 17.6944Z" fill="#0C111D"/>
<path d="M70.1156 24.4984C70.7316 24.8204 71.4456 24.9814 72.2576 24.9814C73.0416 24.9814 73.6786 24.8624 74.1686 24.6244C74.6586 24.3864 75.0996 24.0434 75.4916 23.5954L73.5386 21.6214C73.3986 21.7754 73.2376 21.8944 73.0556 21.9784C72.8876 22.0484 72.6846 22.0834 72.4466 22.0834C72.1666 22.0834 71.9216 21.9924 71.7116 21.8104C71.5156 21.6284 71.4176 21.3554 71.4176 20.9914V17.2954H74.7566V14.5444H71.4176V10.3234H68.2046V14.5444H65.9366V17.2954H68.2046V20.9704C68.2046 21.7964 68.3726 22.5104 68.7086 23.1124C69.0446 23.7144 69.5136 24.1764 70.1156 24.4984Z" fill="#0C111D"/>
<path d="M80.1424 25.0024C79.5404 25.0024 78.9454 24.9254 78.3574 24.7714C77.7834 24.6174 77.2444 24.4004 76.7404 24.1204C76.2504 23.8264 75.8304 23.4904 75.4804 23.1124L77.3074 21.2644C77.6434 21.6284 78.0424 21.9154 78.5044 22.1254C78.9664 22.3214 79.4704 22.4194 80.0164 22.4194C80.3944 22.4194 80.6814 22.3634 80.8774 22.2514C81.0874 22.1394 81.1924 21.9854 81.1924 21.7894C81.1924 21.5374 81.0664 21.3484 80.8144 21.2224C80.5764 21.0824 80.2684 20.9634 79.8904 20.8654C79.5124 20.7534 79.1134 20.6344 78.6934 20.5084C78.2734 20.3824 77.8744 20.2074 77.4964 19.9834C77.1184 19.7594 76.8104 19.4514 76.5724 19.0594C76.3344 18.6534 76.2154 18.1424 76.2154 17.5264C76.2154 16.8684 76.3834 16.3014 76.7194 15.8254C77.0554 15.3354 77.5314 14.9504 78.1474 14.6704C78.7634 14.3904 79.4844 14.2504 80.3104 14.2504C81.1784 14.2504 81.9764 14.4044 82.7044 14.7124C83.4464 15.0064 84.0484 15.4474 84.5104 16.0354L82.6834 17.8834C82.3614 17.5054 81.9974 17.2394 81.5914 17.0854C81.1994 16.9314 80.8144 16.8544 80.4364 16.8544C80.0724 16.8544 79.7994 16.9104 79.6174 17.0224C79.4354 17.1204 79.3444 17.2674 79.3444 17.4634C79.3444 17.6734 79.4634 17.8414 79.7014 17.9674C79.9394 18.0934 80.2474 18.2054 80.6254 18.3034C81.0034 18.4014 81.4024 18.5204 81.8224 18.6604C82.2424 18.8004 82.6414 18.9894 83.0194 19.2274C83.3974 19.4654 83.7054 19.7874 83.9434 20.1934C84.1814 20.5854 84.3004 21.1034 84.3004 21.7474C84.3004 22.7414 83.9224 23.5324 83.1664 24.1204C82.4244 24.7084 81.4164 25.0024 80.1424 25.0024Z" fill="#0C111D"/>
<path d="M87.6606 24.4144C88.3886 24.7924 89.2216 24.9814 90.1596 24.9814C91.0976 24.9814 91.9236 24.7924 92.6376 24.4144C93.3516 24.0224 93.9116 23.4904 94.3176 22.8184C94.7236 22.1324 94.9266 21.3414 94.9266 20.4454V14.5444H91.7136V20.4244C91.7136 20.9564 91.5736 21.3764 91.2936 21.6844C91.0136 21.9784 90.6356 22.1254 90.1596 22.1254C89.8236 22.1254 89.5366 22.0554 89.2986 21.9154C89.0606 21.7754 88.8786 21.5794 88.7526 21.3274C88.6406 21.0754 88.5846 20.7744 88.5846 20.4244V14.5444H85.3716V20.4664C85.3716 21.3484 85.5746 22.1324 85.9806 22.8184C86.3866 23.4904 86.9466 24.0224 87.6606 24.4144Z" fill="#0C111D"/>
<path fill-rule="evenodd" clip-rule="evenodd" d="M100.556 29.2864C99.6179 29.2864 98.7709 29.1184 98.0149 28.7824C97.2729 28.4464 96.6849 27.9774 96.2509 27.3754C95.8309 26.7874 95.6209 26.1084 95.6209 25.3384C95.6209 24.7224 95.7049 24.2184 95.8729 23.8264C96.0549 23.4344 96.3279 23.0494 96.6919 22.6714L98.9809 24.1414C98.8549 24.2814 98.7569 24.4284 98.6869 24.5824C98.6169 24.7364 98.5819 24.9184 98.5819 25.1284C98.5819 25.5484 98.7569 25.8844 99.1069 26.1364C99.4569 26.3884 99.9469 26.5144 100.577 26.5144C101.249 26.5144 101.767 26.3534 102.131 26.0314C102.495 25.7234 102.677 25.2824 102.677 24.7084C102.677 24.3304 102.586 24.0014 102.404 23.7214C102.222 23.4274 101.963 23.2034 101.627 23.0494C101.305 22.8814 100.934 22.7974 100.514 22.7974C99.7159 22.7974 98.9949 22.6154 98.3509 22.2514C97.7209 21.8734 97.2169 21.3694 96.8389 20.7394C96.4749 20.0954 96.2929 19.3744 96.2929 18.5764C96.2929 17.7504 96.4819 17.0224 96.8599 16.3924C97.2519 15.7484 97.7769 15.2444 98.4349 14.8804C99.1069 14.5164 99.8559 14.3344 100.682 14.3344C101.391 14.3344 102.038 14.4684 102.623 14.7364L104.315 13.0744L106.163 14.9224L104.594 16.491C104.912 17.048 105.071 17.6732 105.071 18.3664C105.071 19.1364 104.882 19.8154 104.504 20.4034C104.268 20.7843 103.973 21.1124 103.62 21.3875C104.167 21.7384 104.609 22.1803 104.945 22.7134C105.351 23.3574 105.554 24.0924 105.554 24.9184C105.554 25.7724 105.344 26.5284 104.924 27.1864C104.504 27.8444 103.923 28.3554 103.181 28.7194C102.439 29.0974 101.564 29.2864 100.556 29.2864ZM100.682 20.1514C101.004 20.1514 101.284 20.0884 101.522 19.9624C101.76 19.8224 101.949 19.6334 102.089 19.3954C102.229 19.1574 102.299 18.8844 102.299 18.5764C102.299 18.2684 102.229 17.9954 102.089 17.7574C101.963 17.5194 101.774 17.3374 101.522 17.2114C101.284 17.0714 101.004 17.0014 100.682 17.0014C100.36 17.0014 100.08 17.0714 99.8419 17.2114C99.6039 17.3374 99.4149 17.5194 99.2749 17.7574C99.1349 17.9954 99.0649 18.2684 99.0649 18.5764C99.0649 18.8844 99.1349 19.1574 99.2749 19.3954C99.4149 19.6334 99.6039 19.8224 99.8419 19.9624C100.094 20.0884 100.374 20.1514 100.682 20.1514Z" fill="#0C111D"/>
<path d="M107.371 12.6334C107.707 12.9694 108.127 13.1374 108.631 13.1374C109.135 13.1374 109.548 12.9694 109.87 12.6334C110.192 12.2834 110.353 11.8634 110.353 11.3734C110.353 10.8694 110.192 10.4494 109.87 10.1134C109.548 9.77737 109.135 9.60938 108.631 9.60938C108.127 9.60938 107.707 9.77737 107.371 10.1134C107.049 10.4494 106.888 10.8694 106.888 11.3734C106.888 11.8634 107.049 12.2834 107.371 12.6334Z" fill="#0C111D"/>
<path d="M50.7176 14.5444V24.7504H53.9306V14.5444H50.7176Z" fill="#0C111D"/>
<path d="M107.014 14.5444V24.7504H110.227V14.5444H107.014Z" fill="#0C111D"/>
</svg>
