<svg width="58" height="57" viewBox="0 0 58 57" fill="none" xmlns="http://www.w3.org/2000/svg">
<g filter="url(#filter0_dd_85_22271)">
<g clip-path="url(#clip0_85_22271)">
<rect x="5" y="3" width="48" height="48" rx="12" fill="white"/>
<rect x="5" y="3" width="48" height="48" rx="12" fill="url(#paint0_linear_85_22271)"/>
<path fill-rule="evenodd" clip-rule="evenodd" d="M28.9997 6.05791C17.4339 6.05791 8.05791 15.4339 8.05791 26.9997C8.05791 38.5655 17.4339 47.9414 28.9997 47.9414C40.5655 47.9414 49.9414 38.5655 49.9414 26.9997C49.9414 15.4339 40.5655 6.05791 28.9997 6.05791ZM7.94141 26.9997C7.94141 15.3695 17.3695 5.94141 28.9997 5.94141C40.6298 5.94141 50.0579 15.3695 50.0579 26.9997C50.0579 38.6298 40.6298 48.0579 28.9997 48.0579C17.3695 48.0579 7.94141 38.6298 7.94141 26.9997Z" fill="#D0D5DD"/>
<path fill-rule="evenodd" clip-rule="evenodd" d="M29 21.1165C25.7506 21.1165 23.1165 23.7506 23.1165 27C23.1165 30.2494 25.7506 32.8835 29 32.8835C32.2494 32.8835 34.8835 30.2494 34.8835 27C34.8835 23.7506 32.2494 21.1165 29 21.1165ZM23 27C23 23.6863 25.6863 21 29 21C32.3137 21 35 23.6863 35 27C35 30.3137 32.3137 33 29 33C25.6863 33 23 30.3137 23 27Z" fill="#D0D5DD"/>
<path fill-rule="evenodd" clip-rule="evenodd" d="M29.0002 22.9798C26.7803 22.9798 24.9808 24.7793 24.9808 26.9992C24.9808 29.2191 26.7803 31.0186 29.0002 31.0186C31.22 31.0186 33.0196 29.2191 33.0196 26.9992C33.0196 24.7793 31.22 22.9798 29.0002 22.9798ZM24.8643 26.9992C24.8643 24.715 26.716 22.8633 29.0002 22.8633C31.2844 22.8633 33.1361 24.715 33.1361 26.9992C33.1361 29.2834 31.2844 31.1351 29.0002 31.1351C26.716 31.1351 24.8643 29.2834 24.8643 26.9992Z" fill="#D0D5DD"/>
<path d="M28.9414 3H29.0579V51H28.9414V3Z" fill="#D0D5DD"/>
<path d="M53 26.9414L53 27.0579L5 27.0579L5 26.9414L53 26.9414Z" fill="#D0D5DD"/>
<path d="M44.9033 3H45.0198V51H44.9033V3Z" fill="#D0D5DD"/>
<path d="M20.9609 3H21.0774V51H20.9609V3Z" fill="#D0D5DD"/>
<path d="M36.9229 3H37.0394V51H36.9229V3Z" fill="#D0D5DD"/>
<path d="M12.9805 3H13.097V51H12.9805V3Z" fill="#D0D5DD"/>
<path d="M53 42.9023L53 43.0188L5 43.0188L5 42.9023L53 42.9023Z" fill="#D0D5DD"/>
<path d="M53 18.9609L53 19.0774L5 19.0774L5 18.9609L53 18.9609Z" fill="#D0D5DD"/>
<path d="M53 34.9219L53 35.0384L5 35.0384L5 34.9219L53 34.9219Z" fill="#D0D5DD"/>
<path d="M53 10.9805L53 11.097L5 11.097L5 10.9805L53 10.9805Z" fill="#D0D5DD"/>
<path d="M30 22.5004L27 25.5004L31 27.5004L28 30.5004M37 27.0004C37 31.9088 31.646 35.4788 29.698 36.6152C29.4766 36.7444 29.3659 36.809 29.2097 36.8425C29.0884 36.8685 28.9116 36.8685 28.7903 36.8425C28.6341 36.809 28.5234 36.7444 28.302 36.6152C26.354 35.4788 21 31.9088 21 27.0004V22.218C21 21.4184 21 21.0187 21.1308 20.6751C21.2463 20.3715 21.434 20.1006 21.6777 19.8859C21.9535 19.6428 22.3278 19.5024 23.0764 19.2217L28.4382 17.211C28.6461 17.1331 28.75 17.0941 28.857 17.0786C28.9518 17.0649 29.0482 17.0649 29.143 17.0786C29.25 17.0941 29.3539 17.1331 29.5618 17.211L34.9236 19.2217C35.6722 19.5024 36.0465 19.6428 36.3223 19.8859C36.566 20.1006 36.7537 20.3715 36.8692 20.6751C37 21.0187 37 21.4184 37 22.218V27.0004Z" stroke="#02249E" stroke-width="2" stroke-linecap="round" stroke-linejoin="round"/>
<path d="M5 3H53V31.8C53 38.5206 53 41.8809 51.6921 44.4479C50.5416 46.7058 48.7058 48.5416 46.4479 49.6921C43.8809 51 40.5206 51 33.8 51H24.2C17.4794 51 14.1191 51 11.5521 49.6921C9.29417 48.5416 7.4584 46.7058 6.30792 44.4479C5 41.8809 5 38.5206 5 31.8V3Z" fill="white" fill-opacity="0.2"/>
</g>
<rect x="5.15" y="3.15" width="47.7" height="47.7" rx="11.85" stroke="#D0D5DD" stroke-width="0.3"/>
</g>
<defs>
<filter id="filter0_dd_85_22271" x="0.5" y="0" width="57" height="57" filterUnits="userSpaceOnUse" color-interpolation-filters="sRGB">
<feFlood flood-opacity="0" result="BackgroundImageFix"/>
<feColorMatrix in="SourceAlpha" type="matrix" values="0 0 0 0 0 0 0 0 0 0 0 0 0 0 0 0 0 0 127 0" result="hardAlpha"/>
<feOffset dy="1.5"/>
<feGaussianBlur stdDeviation="1.5"/>
<feColorMatrix type="matrix" values="0 0 0 0 0.0627451 0 0 0 0 0.0941176 0 0 0 0 0.156863 0 0 0 0.06 0"/>
<feBlend mode="normal" in2="BackgroundImageFix" result="effect1_dropShadow_85_22271"/>
<feColorMatrix in="SourceAlpha" type="matrix" values="0 0 0 0 0 0 0 0 0 0 0 0 0 0 0 0 0 0 127 0" result="hardAlpha"/>
<feOffset dy="1.5"/>
<feGaussianBlur stdDeviation="2.25"/>
<feColorMatrix type="matrix" values="0 0 0 0 0.0627451 0 0 0 0 0.0941176 0 0 0 0 0.156863 0 0 0 0.1 0"/>
<feBlend mode="normal" in2="effect1_dropShadow_85_22271" result="effect2_dropShadow_85_22271"/>
<feBlend mode="normal" in="SourceGraphic" in2="effect2_dropShadow_85_22271" result="shape"/>
</filter>
<linearGradient id="paint0_linear_85_22271" x1="29" y1="3" x2="29" y2="51" gradientUnits="userSpaceOnUse">
<stop stop-color="white"/>
<stop offset="1" stop-color="#D0D5DD"/>
</linearGradient>
<clipPath id="clip0_85_22271">
<rect x="5" y="3" width="48" height="48" rx="12" fill="white"/>
</clipPath>
</defs>
</svg>
