<svg width="137" height="36" viewBox="0 0 137 36" fill="none" xmlns="http://www.w3.org/2000/svg">
<path fill-rule="evenodd" clip-rule="evenodd" d="M13.006 21.37L16.4326 24.7966C18.5178 26.8819 21.8987 26.8819 23.984 24.7966C24.6717 24.1089 25.1326 23.2803 25.3667 22.4036L27.7597 24.7966C29.8449 26.8819 33.2258 26.8819 35.3111 24.7966C37.3963 22.7113 37.3963 19.3305 35.3111 17.2452L27.7597 9.69383C25.6744 7.60857 22.2935 7.60857 20.2083 9.69383C19.5206 10.3815 19.0596 11.2102 18.8255 12.0868L16.4326 9.69383C14.3473 7.60857 10.9664 7.60857 8.88118 9.69383L2.66702 15.908C0.27766 18.2974 0.277661 22.1713 2.66702 24.5606C5.05638 26.95 8.9303 26.95 11.3197 24.5606C12.2242 23.6561 12.7863 22.5389 13.006 21.37ZM14.5447 11.5817C13.5021 10.539 11.8117 10.539 10.769 11.5817C9.72685 12.6239 9.72641 14.3133 10.7677 15.356L18.3204 22.9088C19.3631 23.9514 21.0535 23.9514 22.0961 22.9088C23.1382 21.8667 23.1388 20.1775 22.0978 19.1347L14.5447 11.5817ZM9.43181 17.7958L6.99334 15.3574L4.55487 17.7958C3.20814 19.1426 3.20814 21.3261 4.55487 22.6728C5.9016 24.0195 8.08508 24.0195 9.43181 22.6728C10.7785 21.3261 10.7785 19.1426 9.43181 17.7958ZM22.0939 15.3552C21.0535 14.3123 21.0542 12.6236 22.0961 11.5817C23.1387 10.539 24.8292 10.539 25.8718 11.5817L33.4232 19.1331C34.4658 20.1757 34.4658 21.8661 33.4232 22.9088C32.3806 23.9514 30.6901 23.9514 29.6475 22.9088L22.0939 15.3552Z" fill="#DD2590"/>
<path d="M46.2898 24.7501H42.875V8.65509H46.2898L51.0748 19.1611L55.8815 8.65509H59.3398V24.7501H55.925V21.3788C55.925 17.8988 55.925 17.1376 56.099 15.9413L52.6842 23.2501H49.4653L46.0722 15.9413C46.268 17.1376 46.2898 18.4861 46.2898 20.2478V24.7501Z" fill="#0C111D"/>
<path d="M65.5631 25.0328C63.2576 25.0328 61.8221 23.6843 61.8221 21.5528C61.8221 19.5518 63.2359 18.3121 65.8459 18.1163L68.8909 17.8771V17.7031C68.8909 16.6373 68.2384 16.0718 67.0421 16.0718C65.6284 16.0718 64.8671 16.6156 64.8671 17.5943H62.0831C62.0831 15.1366 64.1059 13.5271 67.2161 13.5271C70.3699 13.5271 72.1534 15.2888 72.1534 18.3991V24.7501H69.1954L68.9779 23.3146C68.6299 24.3151 67.1944 25.0328 65.5631 25.0328ZM66.7376 22.5533C68.0209 22.5533 68.9126 21.9226 68.9126 20.6828V20.0956L67.2161 20.2478C65.7589 20.3783 65.2369 20.7046 65.2369 21.4006C65.2369 22.1836 65.7154 22.5533 66.7376 22.5533Z" fill="#0C111D"/>
<path d="M74.012 19.1168C74.012 15.8108 76.1652 13.5053 79.232 13.5053C80.711 13.5053 81.8855 14.0708 82.4727 14.9626L82.6467 13.8751H85.8005V24.0541C85.8005 27.9473 83.5602 30.2963 79.841 30.2963C76.5132 30.2963 74.273 28.4041 73.9685 25.3156H77.3615C77.4267 26.5336 78.3402 27.2513 79.8192 27.2513C81.4287 27.2513 82.451 26.2943 82.451 24.7501V23.3363C81.7985 24.1193 80.5805 24.6196 79.1667 24.6196C76.1217 24.6196 74.012 22.3793 74.012 19.1168ZM77.3832 19.0298C77.3832 20.5958 78.4272 21.7051 79.9062 21.7051C81.4287 21.7051 82.451 20.6393 82.451 19.0298C82.451 17.4421 81.4287 16.4198 79.8845 16.4198C78.4055 16.4198 77.3832 17.4856 77.3832 19.0298Z" fill="#0C111D"/>
<path d="M91.6689 24.7501H88.3194V13.8751H91.4732L91.6907 15.0061C92.3649 14.0708 93.6047 13.5271 95.0184 13.5271C97.6067 13.5271 99.1074 15.1801 99.1074 18.0293V24.7501H95.7579V18.8341C95.7579 17.4638 94.9967 16.5721 93.8439 16.5721C92.5172 16.5721 91.6689 17.4421 91.6689 18.7906V24.7501Z" fill="#0C111D"/>
<path d="M100.922 19.2908C100.922 15.8543 103.445 13.5488 106.925 13.5488C110.384 13.5488 112.907 15.8543 112.907 19.2908C112.907 22.7273 110.384 25.0111 106.925 25.0111C103.445 25.0111 100.922 22.7273 100.922 19.2908ZM104.294 19.2691C104.294 20.9221 105.359 22.0096 106.925 22.0096C108.47 22.0096 109.535 20.9221 109.535 19.2691C109.535 17.6378 108.47 16.5503 106.925 16.5503C105.359 16.5503 104.294 17.6378 104.294 19.2691Z" fill="#0C111D"/>
<path d="M118.198 24.7501H114.848V8.35059H118.198V24.7501Z" fill="#0C111D"/>
<path d="M122.364 12.1786C121.298 12.1786 120.45 11.3303 120.45 10.2646C120.45 9.19884 121.298 8.37234 122.364 8.37234C123.408 8.37234 124.256 9.19884 124.256 10.2646C124.256 11.3303 123.408 12.1786 122.364 12.1786ZM120.711 24.7501V13.8751H124.06V24.7501H120.711Z" fill="#0C111D"/>
<path d="M129.857 25.0328C127.552 25.0328 126.116 23.6843 126.116 21.5528C126.116 19.5518 127.53 18.3121 130.14 18.1163L133.185 17.8771V17.7031C133.185 16.6373 132.533 16.0718 131.336 16.0718C129.923 16.0718 129.161 16.6156 129.161 17.5943H126.377C126.377 15.1366 128.4 13.5271 131.51 13.5271C134.664 13.5271 136.448 15.2888 136.448 18.3991V24.7501H133.49L133.272 23.3146C132.924 24.3151 131.489 25.0328 129.857 25.0328ZM131.032 22.5533C132.315 22.5533 133.207 21.9226 133.207 20.6828V20.0956L131.51 20.2478C130.053 20.3783 129.531 20.7046 129.531 21.4006C129.531 22.1836 130.01 22.5533 131.032 22.5533Z" fill="#0C111D"/>
</svg>
