<svg width="143" height="36" viewBox="0 0 143 36" fill="none" xmlns="http://www.w3.org/2000/svg">
<rect x="0.125" y="3" width="7.5" height="7.5" fill="#155EEF"/>
<rect opacity="0.6" x="15.125" y="3" width="7.5" height="7.5" fill="#155EEF"/>
<rect opacity="0.6" x="7.625" y="10.5" width="7.5" height="7.5" fill="#155EEF"/>
<rect opacity="0.45" x="15.125" y="10.5" width="7.5" height="7.5" fill="#155EEF"/>
<rect opacity="0.3" x="22.625" y="10.5" width="7.5" height="7.5" fill="#155EEF"/>
<rect opacity="0.6" x="0.125" y="18" width="7.5" height="7.5" fill="#155EEF"/>
<rect opacity="0.45" x="7.625" y="18" width="7.5" height="7.5" fill="#155EEF"/>
<rect opacity="0.3" x="15.125" y="18" width="7.5" height="7.5" fill="#155EEF"/>
<rect opacity="0.15" x="22.625" y="18" width="7.5" height="7.5" fill="#155EEF"/>
<rect opacity="0.3" x="7.625" y="25.5" width="7.5" height="7.5" fill="#155EEF"/>
<rect opacity="0.15" x="15.125" y="25.5" width="7.5" height="7.5" fill="#155EEF"/>
<path d="M52.565 17.4145C52.565 19.4845 51.8975 21.262 50.5625 22.747C49.2425 24.232 47.3975 24.9745 45.0275 24.9745C42.6425 24.9745 40.8125 24.232 39.5375 22.747C38.2625 21.262 37.625 19.4995 37.625 17.4595C37.625 15.3295 38.3 13.537 39.65 12.082C41 10.627 42.8225 9.89953 45.1175 9.89953C47.4575 9.89953 49.28 10.642 50.585 12.127C51.905 13.597 52.565 15.3595 52.565 17.4145ZM49.3025 17.5045C49.3025 15.9445 48.9425 14.7295 48.2225 13.8595C47.5025 12.9895 46.46 12.5545 45.095 12.5545C43.64 12.5545 42.575 13.0195 41.9 13.9495C41.225 14.8645 40.8875 16.012 40.8875 17.392C40.8875 18.727 41.2175 19.882 41.8775 20.857C42.5375 21.832 43.64 22.3195 45.185 22.3195C46.61 22.3195 47.6525 21.877 48.3125 20.992C48.9725 20.092 49.3025 18.9295 49.3025 17.5045Z" fill="#0C111D"/>
<path d="M65.1631 24.7495H60.9106V22.8595C60.6256 23.4445 60.2056 23.947 59.6506 24.367C59.0956 24.772 58.3606 24.9745 57.4456 24.9745C56.1106 24.9745 55.0606 24.517 54.2956 23.602C53.5306 22.687 53.1481 21.442 53.1481 19.867C53.1481 18.352 53.5231 17.062 54.2731 15.997C55.0231 14.932 56.1556 14.3995 57.6706 14.3995C58.4956 14.3995 59.1706 14.5645 59.6956 14.8945C60.2206 15.2245 60.6256 15.6445 60.9106 16.1545V11.4745H58.8856V9.26953H63.8131V22.567H65.1631V24.7495ZM60.9106 19.6195V19.372C60.9106 18.532 60.6856 17.8795 60.2356 17.4145C59.8006 16.9345 59.2531 16.6945 58.5931 16.6945C57.9481 16.6945 57.3781 16.9345 56.8831 17.4145C56.4031 17.8945 56.1631 18.652 56.1631 19.687C56.1631 20.662 56.3881 21.4045 56.8381 21.9145C57.2881 22.4245 57.8206 22.6795 58.4356 22.6795C59.2006 22.6795 59.8006 22.357 60.2356 21.712C60.6856 21.067 60.9106 20.3695 60.9106 19.6195Z" fill="#0C111D"/>
<path d="M75.4526 21.5545C75.3776 22.4545 74.9351 23.2495 74.1251 23.9395C73.3151 24.6295 72.1826 24.9745 70.7276 24.9745C69.2126 24.9745 67.9601 24.547 66.9701 23.692C65.9951 22.837 65.5076 21.562 65.5076 19.867C65.5076 18.307 65.9501 17.0095 66.8351 15.9745C67.7351 14.9245 68.9876 14.3995 70.5926 14.3995C72.0026 14.3995 73.1426 14.8045 74.0126 15.6145C74.8976 16.4245 75.3476 17.4895 75.3626 18.8095C75.3626 19.3045 75.3101 19.792 75.2051 20.272H68.5451C68.7101 21.877 69.5051 22.6795 70.9301 22.6795C71.7101 22.6795 72.2351 22.492 72.5051 22.117C72.7901 21.742 72.9626 21.4045 73.0226 21.1045L75.4526 21.5545ZM72.3701 18.5845C72.4301 18.0745 72.3176 17.5945 72.0326 17.1445C71.7626 16.6945 71.2826 16.4695 70.5926 16.4695C69.9926 16.4695 69.5276 16.6645 69.1976 17.0545C68.8676 17.4445 68.6576 17.9545 68.5676 18.5845H72.3701Z" fill="#0C111D"/>
<path d="M76.9916 15.322C77.8766 14.962 78.6116 14.722 79.1966 14.602C79.7966 14.467 80.5091 14.3995 81.3341 14.3995C82.4291 14.3995 83.3741 14.6845 84.1691 15.2545C84.9641 15.8245 85.3616 16.687 85.3616 17.842V22.252C85.3616 22.777 85.5941 23.0395 86.0591 23.0395C86.1941 23.0395 86.3366 23.017 86.4866 22.972L86.5091 24.502C85.9241 24.817 85.3166 24.9745 84.6866 24.9745C83.3516 24.9745 82.6091 24.307 82.4591 22.972V22.9495C82.1741 23.4595 81.7616 23.9245 81.2216 24.3445C80.6966 24.7645 80.0216 24.9745 79.1966 24.9745C78.4616 24.9745 77.7566 24.757 77.0816 24.322C76.4066 23.887 76.0691 23.137 76.0691 22.072C76.0691 20.827 76.5641 20.002 77.5541 19.597C78.5591 19.192 79.6391 18.9895 80.7941 18.9895C81.4391 18.9895 81.9941 19.0195 82.4591 19.0795V18.742C82.4591 18.217 82.3841 17.707 82.2341 17.212C82.0991 16.717 81.6191 16.4695 80.7941 16.4695C80.4941 16.4695 80.2166 16.492 79.9616 16.537C79.7216 16.567 79.4816 16.642 79.2416 16.762L78.8591 18.202L76.5416 17.9545L76.9916 15.322ZM82.4591 20.6095V20.4745C82.2191 20.4445 81.9716 20.4145 81.7166 20.3845C81.4766 20.3545 81.2366 20.3395 80.9966 20.3395C80.4866 20.3395 80.0366 20.437 79.6466 20.632C79.2566 20.812 79.0616 21.1795 79.0616 21.7345C79.0616 22.0645 79.1516 22.342 79.3316 22.567C79.5116 22.792 79.8191 22.9045 80.2541 22.9045C80.7641 22.9045 81.2366 22.7245 81.6716 22.3645C82.1216 21.9895 82.3841 21.4045 82.4591 20.6095Z" fill="#0C111D"/>
<path d="M97.7109 19.687C97.7109 21.292 97.1859 22.5745 96.1359 23.5345C95.0859 24.4945 93.7509 24.9745 92.1309 24.9745C90.5709 24.9745 89.2959 24.5245 88.3059 23.6245C87.3309 22.7095 86.8434 21.4345 86.8434 19.7995C86.8434 18.3145 87.2934 17.0395 88.1934 15.9745C89.0934 14.9095 90.4584 14.377 92.2884 14.377C94.1184 14.377 95.4759 14.9095 96.3609 15.9745C97.2609 17.0245 97.7109 18.262 97.7109 19.687ZM94.7184 19.597C94.7184 18.562 94.4784 17.8045 93.9984 17.3245C93.5184 16.8445 92.9334 16.6045 92.2434 16.6045C91.4934 16.6045 90.9009 16.8745 90.4659 17.4145C90.0459 17.9395 89.8359 18.682 89.8359 19.642C89.8359 20.512 90.0309 21.247 90.4209 21.847C90.8259 22.447 91.4259 22.747 92.2209 22.747C92.9709 22.747 93.5709 22.4695 94.0209 21.9145C94.4859 21.3445 94.7184 20.572 94.7184 19.597Z" fill="#0C111D"/>
<path d="M109.095 24.7495H98.1148V22.1845H99.6898V12.6895H98.1148V10.1245H104.752V12.6895H102.705V22.1845H106.53L106.98 19.3495L109.545 19.5745L109.095 24.7495Z" fill="#0C111D"/>
<path d="M110.864 15.322C111.749 14.962 112.484 14.722 113.069 14.602C113.669 14.467 114.381 14.3995 115.206 14.3995C116.301 14.3995 117.246 14.6845 118.041 15.2545C118.836 15.8245 119.234 16.687 119.234 17.842V22.252C119.234 22.777 119.466 23.0395 119.931 23.0395C120.066 23.0395 120.209 23.017 120.359 22.972L120.381 24.502C119.796 24.817 119.189 24.9745 118.559 24.9745C117.224 24.9745 116.481 24.307 116.331 22.972V22.9495C116.046 23.4595 115.634 23.9245 115.094 24.3445C114.569 24.7645 113.894 24.9745 113.069 24.9745C112.334 24.9745 111.629 24.757 110.954 24.322C110.279 23.887 109.941 23.137 109.941 22.072C109.941 20.827 110.436 20.002 111.426 19.597C112.431 19.192 113.511 18.9895 114.666 18.9895C115.311 18.9895 115.866 19.0195 116.331 19.0795V18.742C116.331 18.217 116.256 17.707 116.106 17.212C115.971 16.717 115.491 16.4695 114.666 16.4695C114.366 16.4695 114.089 16.492 113.834 16.537C113.594 16.567 113.354 16.642 113.114 16.762L112.731 18.202L110.414 17.9545L110.864 15.322ZM116.331 20.6095V20.4745C116.091 20.4445 115.844 20.4145 115.589 20.3845C115.349 20.3545 115.109 20.3395 114.869 20.3395C114.359 20.3395 113.909 20.437 113.519 20.632C113.129 20.812 112.934 21.1795 112.934 21.7345C112.934 22.0645 113.024 22.342 113.204 22.567C113.384 22.792 113.691 22.9045 114.126 22.9045C114.636 22.9045 115.109 22.7245 115.544 22.3645C115.994 21.9895 116.256 21.4045 116.331 20.6095Z" fill="#0C111D"/>
<path d="M132.191 19.4395C132.191 20.9395 131.793 22.237 130.998 23.332C130.218 24.427 129.063 24.9745 127.533 24.9745C125.988 24.9745 124.901 24.3895 124.271 23.2195C124.241 23.4745 124.203 23.7295 124.158 23.9845C124.128 24.2395 124.091 24.4945 124.046 24.7495H121.143C121.248 24.2245 121.338 23.6995 121.413 23.1745C121.488 22.6495 121.526 22.132 121.526 21.622V11.4745H120.176V9.26953H124.428V16.537C124.698 15.952 125.103 15.4495 125.643 15.0295C126.198 14.6095 126.933 14.3995 127.848 14.3995C129.123 14.3995 130.166 14.842 130.976 15.727C131.786 16.612 132.191 17.8495 132.191 19.4395ZM129.176 19.687C129.176 18.712 128.966 17.9695 128.546 17.4595C128.126 16.9495 127.571 16.6945 126.881 16.6945C126.101 16.6945 125.493 16.9795 125.058 17.5495C124.638 18.1195 124.428 18.7795 124.428 19.5295V19.777C124.428 20.602 124.631 21.2995 125.036 21.8695C125.456 22.4245 126.048 22.702 126.813 22.702C127.473 22.702 128.028 22.462 128.478 21.982C128.943 21.487 129.176 20.722 129.176 19.687Z" fill="#0C111D"/>
<path d="M141.996 21.6445C141.996 22.7695 141.546 23.6095 140.646 24.1645C139.761 24.7045 138.606 24.9745 137.181 24.9745C136.446 24.9745 135.703 24.8995 134.953 24.7495C134.218 24.5845 133.513 24.3295 132.838 23.9845L133.243 21.1495L135.493 21.397V22.657C135.763 22.747 136.048 22.807 136.348 22.837C136.648 22.852 136.873 22.8595 137.023 22.8595C137.578 22.8595 138.058 22.7695 138.463 22.5895C138.868 22.4095 139.071 22.1395 139.071 21.7795C139.071 21.3445 138.763 21.0595 138.148 20.9245C137.533 20.7895 136.821 20.6545 136.011 20.5195C135.201 20.3845 134.488 20.107 133.873 19.687C133.258 19.267 132.951 18.5545 132.951 17.5495C132.951 16.3045 133.431 15.472 134.391 15.052C135.366 14.617 136.371 14.3995 137.406 14.3995C138.756 14.3995 140.023 14.707 141.208 15.322L141.456 17.9095L139.206 18.157L139.026 16.7395C138.531 16.5745 137.998 16.492 137.428 16.492C137.053 16.492 136.731 16.5745 136.461 16.7395C136.206 16.8895 136.078 17.1295 136.078 17.4595C136.078 17.8945 136.371 18.187 136.956 18.337C137.556 18.472 138.246 18.607 139.026 18.742C139.821 18.877 140.511 19.1545 141.096 19.5745C141.696 19.9795 141.996 20.6695 141.996 21.6445Z" fill="#0C111D"/>
</svg>
