<svg width="118" height="36" viewBox="0 0 118 36" fill="none" xmlns="http://www.w3.org/2000/svg">
<rect x="0.449707" y="14.4004" width="7.19999" height="7.19999" fill="#099250"/>
<rect x="23.5503" y="21.5996" width="7.2" height="7.19999" transform="rotate(180 23.5503 21.5996)" fill="#099250"/>
<path opacity="0.2" d="M7.64941 14.3992L16.3494 7.19922V14.3992L7.64941 21.5992V14.3992Z" fill="#099250"/>
<path opacity="0.5" d="M16.3491 21.6008L7.64913 28.8008L7.64913 21.6008L16.3491 14.4008L16.3491 21.6008Z" fill="#099250"/>
<path opacity="0.6" d="M0.449707 14.4L16.3497 0V7.19999L7.6497 14.4H0.449707Z" fill="#099250"/>
<path opacity="0.7" d="M23.5503 21.6L7.65031 36L7.65031 28.8L16.3503 21.6L23.5503 21.6Z" fill="#099250"/>
<path d="M37.5952 24.9324C35.5972 24.9324 34.0785 24.4869 33.039 23.5959C32.013 22.7049 31.5 21.5439 31.5 20.1129H34.6995C34.7265 20.8419 34.9695 21.4292 35.4285 21.8747C35.901 22.3067 36.6637 22.5227 37.7167 22.5227C38.5268 22.5227 39.1747 22.3742 39.6607 22.0772C40.1467 21.7802 40.3897 21.3414 40.3897 20.7609C40.3897 20.2884 40.2885 19.9239 40.086 19.6674C39.8835 19.3974 39.5325 19.1882 39.033 19.0397C38.5335 18.8912 37.8382 18.7427 36.9472 18.5942C35.2462 18.3242 33.9637 17.8652 33.0997 17.2172C32.2358 16.5557 31.8038 15.5837 31.8038 14.3012C31.8038 12.9107 32.3167 11.8172 33.3427 11.0207C34.3687 10.2107 35.7795 9.80566 37.575 9.80566C38.736 9.80566 39.735 9.98791 40.572 10.3524C41.409 10.7169 42.057 11.2299 42.516 11.8914C42.9885 12.5529 43.2248 13.3224 43.2248 14.1999H40.0455C40.0185 13.4844 39.7552 12.9714 39.2557 12.6609C38.7697 12.3504 38.1757 12.1952 37.4738 12.1952C36.7312 12.1952 36.144 12.3504 35.712 12.6609C35.2935 12.9579 35.0842 13.3697 35.0842 13.8962C35.0842 14.3552 35.2057 14.6994 35.4488 14.9289C35.6918 15.1584 36.0697 15.3339 36.5827 15.4554C37.1092 15.5769 37.7977 15.7119 38.6482 15.8604C39.2692 15.9549 39.8767 16.0832 40.4707 16.2452C41.0647 16.4072 41.598 16.6502 42.0705 16.9742C42.5565 17.2847 42.9412 17.7234 43.2248 18.2904C43.5218 18.8439 43.6702 19.5662 43.6702 20.4572C43.6702 21.7802 43.1572 22.8602 42.1312 23.6972C41.1187 24.5207 39.6067 24.9324 37.5952 24.9324Z" fill="#0C111D"/>
<path d="M45.3075 12.4989V9.98791H48.2842V12.4989H45.3075ZM45.3075 24.7502V13.8962H48.2842V24.7502H45.3075Z" fill="#0C111D"/>
<path d="M54.7143 24.9527C53.1348 24.9527 51.913 24.6219 51.049 23.9604C50.1985 23.2854 49.78 22.4079 49.7935 21.3279H52.7095C52.723 21.9084 52.9255 22.3269 53.317 22.5834C53.722 22.8264 54.2148 22.9479 54.7952 22.9479C55.4028 22.9479 55.8617 22.8467 56.1722 22.6442C56.4827 22.4282 56.638 22.1379 56.638 21.7734C56.638 21.2739 56.4558 20.9499 56.0913 20.8014C55.7403 20.6529 55.18 20.5247 54.4105 20.4167C53.614 20.3087 52.885 20.1534 52.2235 19.9509C51.562 19.7349 51.0355 19.4109 50.644 18.9789C50.266 18.5469 50.077 17.9327 50.077 17.1362C50.077 15.9887 50.509 15.1314 51.373 14.5644C52.2505 13.9839 53.398 13.6937 54.8155 13.6937C56.206 13.6937 57.313 13.9974 58.1365 14.6049C58.96 15.1989 59.3853 16.0359 59.4123 17.1159H56.4962C56.4962 16.6569 56.3342 16.3059 56.0103 16.0629C55.6998 15.8199 55.2745 15.6984 54.7345 15.6984C54.181 15.6984 53.7625 15.8064 53.479 16.0224C53.1955 16.2249 53.0538 16.4949 53.0538 16.8324C53.0538 17.2374 53.236 17.5209 53.6005 17.6829C53.965 17.8449 54.5455 17.9799 55.342 18.0879C55.909 18.1689 56.449 18.2702 56.962 18.3917C57.475 18.4997 57.9272 18.6752 58.3187 18.9182C58.7237 19.1477 59.041 19.4717 59.2705 19.8902C59.5135 20.2952 59.635 20.8284 59.635 21.4899C59.635 22.6779 59.1962 23.5554 58.3187 24.1224C57.4412 24.6759 56.2398 24.9527 54.7143 24.9527Z" fill="#0C111D"/>
<path d="M60.4289 28.1319V25.6817H61.6844C62.1299 25.6817 62.4809 25.5872 62.7374 25.3982C63.0074 25.2227 63.2099 24.9459 63.3449 24.5679L63.6081 23.8997L59.4569 13.8962H62.7171L64.7016 19.7079L65.0459 20.8622H65.1471L65.4711 19.7079L67.3341 13.8962H70.5134L66.2811 25.2564C65.8626 26.3904 65.3159 27.1532 64.6409 27.5447C63.9794 27.9362 63.1829 28.1319 62.2514 28.1319H60.4289Z" fill="#0C111D"/>
<path d="M71.343 28.1319V13.8962H74.2185L74.3197 15.7794H74.4817C74.7382 15.1449 75.1635 14.6387 75.7575 14.2607C76.365 13.8827 77.0872 13.6937 77.9242 13.6937C79.2202 13.6937 80.2665 14.1662 81.063 15.1112C81.873 16.0427 82.278 17.4467 82.278 19.3232C82.278 21.1862 81.873 22.5902 81.063 23.5352C80.2665 24.4802 79.2202 24.9527 77.9242 24.9527C77.0872 24.9527 76.365 24.7637 75.7575 24.3857C75.1635 23.9942 74.7382 23.4879 74.4817 22.8669H74.3197V28.1319H71.343ZM76.8105 22.5429C77.5395 22.5429 78.12 22.2864 78.552 21.7734C78.9975 21.2469 79.2202 20.4302 79.2202 19.3232C79.2202 18.2162 78.9975 17.4062 78.552 16.8932C78.12 16.3667 77.5395 16.1034 76.8105 16.1034C76.257 16.1034 75.798 16.2317 75.4335 16.4882C75.069 16.7447 74.799 17.0822 74.6235 17.5007C74.448 17.9057 74.3602 18.3377 74.3602 18.7967V19.8497C74.3602 20.3087 74.448 20.7474 74.6235 21.1659C74.799 21.5709 75.069 21.9017 75.4335 22.1582C75.798 22.4147 76.257 22.5429 76.8105 22.5429Z" fill="#0C111D"/>
<path d="M83.7524 24.7502V9.98791H86.7292V15.8604H86.8507C87.1477 15.1449 87.6067 14.6049 88.2277 14.2404C88.8487 13.8759 89.5439 13.6937 90.3134 13.6937C91.0424 13.6937 91.6904 13.8422 92.2574 14.1392C92.8379 14.4362 93.2969 14.9154 93.6344 15.5769C93.9719 16.2249 94.1407 17.0957 94.1407 18.1892V24.7502H91.1639V18.8372C91.1639 17.9192 91.0019 17.2374 90.6779 16.7919C90.3539 16.3464 89.8342 16.1237 89.1187 16.1237C88.3492 16.1237 87.7552 16.3869 87.3367 16.9134C86.9317 17.4264 86.7292 18.0272 86.7292 18.7157V24.7502H83.7524Z" fill="#0C111D"/>
<path d="M99.7504 24.9324C98.4949 24.9324 97.5364 24.5679 96.8749 23.8389C96.2134 23.1099 95.8827 22.0502 95.8827 20.6597V13.8962H98.8594V19.8699C98.8594 20.7339 99.0147 21.3954 99.3252 21.8544C99.6492 22.2999 100.182 22.5227 100.925 22.5227C101.681 22.5227 102.261 22.2662 102.666 21.7532C103.085 21.2267 103.294 20.6057 103.294 19.8902V13.8962H106.271V24.7502H103.416L103.294 22.7657H103.152C102.896 23.4677 102.457 24.0077 101.836 24.3857C101.229 24.7502 100.533 24.9324 99.7504 24.9324Z" fill="#0C111D"/>
<path d="M112.668 24.9527C111.089 24.9527 109.867 24.6219 109.003 23.9604C108.152 23.2854 107.734 22.4079 107.747 21.3279H110.663C110.677 21.9084 110.879 22.3269 111.271 22.5834C111.676 22.8264 112.169 22.9479 112.749 22.9479C113.357 22.9479 113.816 22.8467 114.126 22.6442C114.437 22.4282 114.592 22.1379 114.592 21.7734C114.592 21.2739 114.41 20.9499 114.045 20.8014C113.694 20.6529 113.134 20.5247 112.364 20.4167C111.568 20.3087 110.839 20.1534 110.177 19.9509C109.516 19.7349 108.989 19.4109 108.598 18.9789C108.22 18.5469 108.031 17.9327 108.031 17.1362C108.031 15.9887 108.463 15.1314 109.327 14.5644C110.204 13.9839 111.352 13.6937 112.769 13.6937C114.16 13.6937 115.267 13.9974 116.09 14.6049C116.914 15.1989 117.339 16.0359 117.366 17.1159H114.45C114.45 16.6569 114.288 16.3059 113.964 16.0629C113.654 15.8199 113.228 15.6984 112.688 15.6984C112.135 15.6984 111.716 15.8064 111.433 16.0224C111.149 16.2249 111.008 16.4949 111.008 16.8324C111.008 17.2374 111.19 17.5209 111.554 17.6829C111.919 17.8449 112.499 17.9799 113.296 18.0879C113.863 18.1689 114.403 18.2702 114.916 18.3917C115.429 18.4997 115.881 18.6752 116.273 18.9182C116.678 19.1477 116.995 19.4717 117.224 19.8902C117.467 20.2952 117.589 20.8284 117.589 21.4899C117.589 22.6779 117.15 23.5554 116.273 24.1224C115.395 24.6759 114.194 24.9527 112.668 24.9527Z" fill="#0C111D"/>
</svg>
