<svg width="149" height="36" viewBox="0 0 149 36" fill="none" xmlns="http://www.w3.org/2000/svg">
<path fill-rule="evenodd" clip-rule="evenodd" d="M20.3847 1.51041C20.7201 1.33547 21.1208 1.3407 21.4514 1.52435L29.0463 5.74311C29.4035 5.94153 29.625 6.31803 29.625 6.72664L29.6245 15.1638C29.6244 15.5829 29.3914 15.9673 29.0199 16.1611L9.61472 26.2858C9.27939 26.4608 8.87857 26.4556 8.54794 26.2719L0.955084 22.0532C0.598019 21.8548 0.376543 21.4785 0.376472 21.07L0.375 12.6327C0.374927 12.2135 0.607942 11.829 0.979602 11.6351L20.3847 1.51041ZM2.62512 13.3144L2.62615 19.2141L19.7815 10.2632L19.7805 4.36354L2.62512 13.3144ZM22.0305 4.41982L22.0315 10.2831L27.3746 13.2518L27.375 7.38855L22.0305 4.41982ZM26.1271 15.1326L20.8899 12.2227L3.87384 21.1009L9.11109 24.0108L26.1271 15.1326Z" fill="#1570EF"/>
<path opacity="0.5" fill-rule="evenodd" clip-rule="evenodd" d="M9.61525 34.724C9.27995 34.8989 8.87918 34.8937 8.54856 34.71L0.95372 30.4913C0.596516 30.2928 0.374981 29.9163 0.375006 29.5077L0.375531 21.0706C0.375556 20.6515 0.608556 20.2671 0.980131 20.0732L20.3853 9.94853C20.7206 9.77356 21.1214 9.77882 21.4521 9.96252L29.0449 14.1812C29.402 14.3796 29.6235 14.7559 29.6235 15.1644L29.625 23.6017C29.6251 24.0209 29.3921 24.4053 29.0204 24.5992L9.61525 34.724ZM27.3749 22.92L27.3739 17.0203L10.2185 25.9712L10.2195 31.8708L27.3749 22.92ZM7.96952 31.8146L7.9685 25.9513L2.62541 22.9826L2.62505 28.8458L7.96952 31.8146ZM3.8729 21.1018L9.11015 24.0116L26.1262 15.1335L20.8889 12.2236L3.8729 21.1018Z" fill="#1570EF"/>
<path d="M49.1737 20.2343C49.1737 23.0086 46.9463 24.9526 43.3013 24.9526C39.636 24.9526 37.3477 22.9883 37.125 19.9103H40.2435C40.3245 21.5101 41.3573 22.5428 43.2405 22.5428C44.7997 22.5428 45.9135 21.8543 45.9135 20.6798C45.9135 19.7686 45.2048 19.2218 43.9695 18.9788L41.58 18.5131C39.3728 18.0878 37.6718 16.8931 37.6718 14.4833C37.6718 11.8913 39.96 10.0283 43.0988 10.0283C46.359 10.0283 48.7485 11.9318 48.951 14.9693H45.8325C45.7313 13.4506 44.6783 12.4178 43.1393 12.4178C41.6408 12.4178 40.7903 13.2683 40.7903 14.2808C40.7903 15.2731 41.7015 15.6983 42.7545 15.9008L45.2453 16.4071C47.7968 16.9133 49.1737 18.0878 49.1737 20.2343Z" fill="#0C111D"/>
<path d="M57.1926 22.0163V24.4666C56.5041 24.8108 55.8561 24.9526 55.0258 24.9526C52.7983 24.9526 51.4011 23.6768 51.4011 21.2468V16.3463H49.2141V13.9366H51.4011V10.7371H54.1956V13.9366H57.2938V16.3463H54.1956V20.5988C54.1956 21.8543 54.7626 22.3606 55.7751 22.3606C56.3016 22.3606 56.7876 22.2391 57.1926 22.0163Z" fill="#0C111D"/>
<path d="M64.6421 24.7501V23.4136C63.9333 24.4261 62.8601 24.9526 61.3818 24.9526C59.1341 24.9526 57.6356 23.6363 57.6356 21.6113C57.6356 19.5053 59.3366 18.3713 62.4956 18.3713C63.1031 18.3713 63.6296 18.4118 64.2978 18.4928V17.8448C64.2978 16.6298 63.6093 15.9211 62.4348 15.9211C61.2198 15.9211 60.4908 16.6298 60.3896 17.8448H57.8583C58.0203 15.3541 59.8226 13.7341 62.4348 13.7341C65.2698 13.7341 66.9303 15.2933 66.9303 17.9461V24.7501H64.6421ZM60.2883 21.5303C60.2883 22.4416 60.9363 23.0086 61.9893 23.0086C63.4271 23.0086 64.2978 22.2188 64.2978 20.9633V20.1938C63.6296 20.0926 63.1638 20.0521 62.6778 20.0521C61.0781 20.0521 60.2883 20.5583 60.2883 21.5303Z" fill="#0C111D"/>
<path d="M73.1021 24.9526C69.9836 24.9526 67.8371 22.6441 67.8371 19.3433C67.8371 16.1033 70.0646 13.7341 73.1021 13.7341C75.9169 13.7341 78.0026 15.6376 78.3469 18.5536H75.3904C75.2486 17.1158 74.3779 16.2248 73.1021 16.2248C71.6441 16.2248 70.7126 17.4196 70.7126 19.3433C70.7126 21.2873 71.6239 22.4618 73.1021 22.4618C74.3981 22.4618 75.2284 21.6113 75.3904 20.1331H78.3469C78.0229 23.1098 75.9979 24.9526 73.1021 24.9526Z" fill="#0C111D"/>
<path d="M82.1588 24.7501H79.344V10.2106H82.1588V18.5131L86.1075 13.9366H89.3475L84.8723 19.1206L89.874 24.7501H86.2898L82.1588 19.7281V24.7501Z" fill="#0C111D"/>
<path d="M100.528 19.3433C100.528 16.1438 102.411 13.7341 105.327 13.7341C106.623 13.7341 107.717 14.3011 108.527 15.3338V10.2106H111.321V24.7501H108.75V23.1908C107.899 24.3248 106.725 24.9526 105.327 24.9526C102.411 24.9526 100.528 22.5023 100.528 19.3433ZM103.424 19.3433C103.424 21.3683 104.578 22.4416 105.955 22.4416C107.352 22.4416 108.507 21.3481 108.507 19.3028C108.507 17.2576 107.332 16.2248 105.955 16.2248C104.578 16.2248 103.424 17.2778 103.424 19.3433Z" fill="#0C111D"/>
<path d="M126.085 24.7501H116.689V10.2106H119.767V21.9758H126.085V24.7501Z" fill="#0C111D"/>
<path d="M133.585 24.7501V23.4136C132.876 24.4261 131.803 24.9526 130.324 24.9526C128.077 24.9526 126.578 23.6363 126.578 21.6113C126.578 19.5053 128.279 18.3713 131.438 18.3713C132.046 18.3713 132.572 18.4118 133.24 18.4928V17.8448C133.24 16.6298 132.552 15.9211 131.377 15.9211C130.162 15.9211 129.433 16.6298 129.332 17.8448H126.801C126.963 15.3541 128.765 13.7341 131.377 13.7341C134.212 13.7341 135.873 15.2933 135.873 17.9461V24.7501H133.585ZM129.231 21.5303C129.231 22.4416 129.879 23.0086 130.932 23.0086C132.37 23.0086 133.24 22.2188 133.24 20.9633V20.1938C132.572 20.0926 132.106 20.0521 131.62 20.0521C130.021 20.0521 129.231 20.5583 129.231 21.5303Z" fill="#0C111D"/>
<path d="M148.282 19.3433C148.282 22.5023 146.398 24.9526 143.482 24.9526C142.085 24.9526 140.911 24.3248 140.08 23.1908V24.7501H137.488V10.2106H140.303V15.3338C141.093 14.2808 142.186 13.7341 143.482 13.7341C146.398 13.7341 148.282 16.1438 148.282 19.3433ZM145.386 19.3433C145.386 17.2778 144.232 16.2248 142.855 16.2248C141.498 16.2248 140.323 17.2576 140.323 19.3028C140.323 21.3481 141.457 22.4416 142.855 22.4416C144.232 22.4416 145.386 21.3683 145.386 19.3433Z" fill="#0C111D"/>
<path d="M95.0172 24.9323C97.9737 24.9323 100.059 23.1908 100.08 20.7203H97.346C97.265 21.9556 96.374 22.7048 94.9767 22.7048C93.5187 22.7048 92.6682 21.9758 92.6682 20.7608C92.6682 19.5661 93.6605 18.8573 95.3412 18.8573H96.8195V16.6298H95.5032C94.1262 16.6298 93.296 15.9413 93.296 14.8276C93.296 13.7543 94.0047 13.0861 95.1792 13.0861C96.3335 13.0861 97.0625 13.8151 97.0827 15.0098H99.8165C99.7962 12.6406 97.7307 10.8586 95.0375 10.8586C92.162 10.8586 90.4002 12.4178 90.4002 14.6251C90.4002 15.8806 91.1292 16.8728 92.4455 17.5613C90.7445 18.1081 89.7725 19.2016 89.7725 20.6798C89.7725 23.2111 91.8785 24.9323 95.0172 24.9323Z" fill="#0C111D"/>
</svg>
