<svg width="151" height="36" viewBox="0 0 151 36" fill="none" xmlns="http://www.w3.org/2000/svg">
<path fill-rule="evenodd" clip-rule="evenodd" d="M13.996 24.9045C14.6178 24.1583 15.5389 23.7269 16.5101 23.7269H29.7045C33.3195 23.7269 36.25 20.7964 36.25 17.1815V13.9087C36.25 10.2938 33.3195 7.36328 29.7045 7.36328H27.1465C26.1752 7.36328 25.2541 7.7947 24.6323 8.54086L22.504 11.0948C21.8822 11.841 20.9611 12.2724 19.9899 12.2724H6.79545C3.1805 12.2724 0.25 15.2029 0.25 18.8178V22.0906C0.25 25.7055 3.1805 28.636 6.79545 28.636H9.3535C10.3248 28.636 11.2459 28.2046 11.8677 27.4584L13.996 24.9045ZM31.3409 13.9087C31.3409 13.005 30.6083 12.2724 29.7045 12.2724H24.692C23.7207 12.2724 22.7996 12.7038 22.1778 13.45L20.0495 16.0039C19.4277 16.75 18.5066 17.1815 17.5353 17.1815H6.79545C5.89172 17.1815 5.15909 17.9141 5.15909 18.8178V22.0906C5.15909 22.9943 5.89172 23.7269 6.79545 23.7269H11.808C12.7793 23.7269 13.7004 23.2955 14.3222 22.5493L16.4505 19.9954C17.0723 19.2492 17.9934 18.8178 18.9647 18.8178H29.7045C30.6083 18.8178 31.3409 18.0852 31.3409 17.1815V13.9087Z" fill="#0C111D"/>
<path d="M56.6088 24.7499L54.361 16.8322L54.037 15.3742L53.6928 16.8322L51.4653 24.7499H47.8203L43.75 10.9799H47.2127L49.42 20.0114L49.7845 21.6517L50.149 20.0114L52.7005 10.9799H55.5355L58.0668 20.0114L58.4313 21.6517L58.7958 20.0114L61.003 10.9799H64.2835L60.2133 24.7499H56.6088Z" fill="#0C111D"/>
<path d="M67.4976 17.4599H64.3993C64.7233 15.0097 66.6066 13.5112 69.4011 13.5112C72.5196 13.5112 74.1396 15.3337 74.1396 17.8649V22.0364C74.1396 23.4539 74.2611 24.1829 74.4433 24.7499H71.2438C71.1426 24.3854 71.0818 23.9197 71.0616 23.3932C70.2111 24.5677 68.9151 25.0739 67.6191 25.0739C65.5536 25.0739 64.0146 24.0209 64.0146 21.9352C64.0146 20.4569 64.8651 19.3229 66.5863 18.7154C68.0038 18.2497 69.3606 18.1079 71.0413 18.0877V17.8447C71.0413 16.6499 70.4541 16.0222 69.2593 16.0222C68.2063 16.0222 67.6393 16.6094 67.4976 17.4599ZM67.1128 21.7327C67.1128 22.4617 67.6596 22.9274 68.5708 22.9274C69.9478 22.9274 71.0413 21.8137 71.0413 20.3152V19.8899C67.9026 19.9507 67.1128 20.7202 67.1128 21.7327Z" fill="#0C111D"/>
<path d="M75.9401 24.7499V13.8554H79.0383V15.3742C79.7268 14.0782 80.7798 13.5112 81.8936 13.5112C82.3391 13.5112 82.7441 13.6327 82.9668 13.8554V16.4677C82.6023 16.3867 82.2176 16.3462 81.7316 16.3462C79.8686 16.3462 79.0383 17.3992 79.0383 19.1204V24.7499H75.9401Z" fill="#0C111D"/>
<path d="M86.8994 29.2252H83.8012V13.8554H86.8994V14.9894C87.5677 14.0377 88.4992 13.5112 89.6332 13.5112C92.4479 13.5112 94.2097 15.7184 94.2097 19.2824C94.2097 22.9882 92.4074 25.0739 89.6332 25.0739C88.4789 25.0739 87.5474 24.5879 86.8994 23.6564V29.2252ZM88.9852 16.0222C87.6082 16.0222 86.8994 17.1764 86.8994 19.2824C86.8994 21.3884 87.6284 22.5629 88.9852 22.5629C90.3217 22.5629 91.0304 21.4087 91.0304 19.2824C91.0304 17.1764 90.3014 16.0222 88.9852 16.0222Z" fill="#0C111D"/>
<path d="M98.1326 16.8727C98.1326 19.0192 104.876 17.1359 104.876 21.4492C104.876 23.5957 102.891 25.0739 100.056 25.0739C97.3024 25.0739 95.3179 23.8589 94.9129 21.1657H98.0111C98.1529 22.1782 98.9831 22.7249 100.137 22.7249C101.231 22.7249 101.778 22.2997 101.778 21.6314C101.778 19.5254 95.1761 21.4087 95.1761 17.0347C95.1761 15.2122 96.6544 13.5112 99.5704 13.5112C102.183 13.5112 104.167 14.7059 104.471 17.4599H101.393C101.211 16.3462 100.563 15.8804 99.4691 15.8804C98.6591 15.8804 98.1326 16.2854 98.1326 16.8727Z" fill="#0C111D"/>
<path d="M109.128 29.2252H106.03V13.8554H109.128V14.9894C109.796 14.0377 110.728 13.5112 111.862 13.5112C114.676 13.5112 116.438 15.7184 116.438 19.2824C116.438 22.9882 114.636 25.0739 111.862 25.0739C110.707 25.0739 109.776 24.5879 109.128 23.6564V29.2252ZM111.214 16.0222C109.837 16.0222 109.128 17.1764 109.128 19.2824C109.128 21.3884 109.857 22.5629 111.214 22.5629C112.55 22.5629 113.259 21.4087 113.259 19.2824C113.259 17.1764 112.53 16.0222 111.214 16.0222Z" fill="#0C111D"/>
<path d="M127.934 21.1657C127.367 23.6767 125.342 25.0739 122.669 25.0739C119.288 25.0739 117.202 22.8869 117.202 19.3027C117.202 15.5969 119.308 13.5112 122.548 13.5112C125.808 13.5112 127.853 15.6779 127.853 19.2419V19.9304H120.361C120.523 21.6719 121.333 22.6034 122.669 22.6034C123.682 22.6034 124.37 22.1579 124.694 21.1657H127.934ZM122.548 15.9817C121.394 15.9817 120.665 16.7309 120.422 18.1484H124.654C124.411 16.7309 123.682 15.9817 122.548 15.9817Z" fill="#0C111D"/>
<path d="M139.414 21.1657C138.847 23.6767 136.822 25.0739 134.149 25.0739C130.768 25.0739 128.682 22.8869 128.682 19.3027C128.682 15.5969 130.788 13.5112 134.028 13.5112C137.288 13.5112 139.333 15.6779 139.333 19.2419V19.9304H131.841C132.003 21.6719 132.813 22.6034 134.149 22.6034C135.162 22.6034 135.85 22.1579 136.174 21.1657H139.414ZM134.028 15.9817C132.874 15.9817 132.145 16.7309 131.902 18.1484H136.134C135.891 16.7309 135.162 15.9817 134.028 15.9817Z" fill="#0C111D"/>
<path d="M144.718 25.0739C141.924 25.0739 140.162 22.8869 140.162 19.3027C140.162 15.5969 141.964 13.5112 144.718 13.5112C145.872 13.5112 146.804 13.9972 147.472 14.9287V10.1699H150.57V24.7499H147.472V23.5957C146.804 24.5474 145.852 25.0739 144.718 25.0739ZM145.386 22.5629C146.763 22.5629 147.472 21.4289 147.472 19.3027C147.472 17.1967 146.743 16.0222 145.386 16.0222C144.05 16.0222 143.341 17.1764 143.341 19.3027C143.341 21.4087 144.07 22.5629 145.386 22.5629Z" fill="#0C111D"/>
</svg>
